<svg width="23" height="30" viewBox="0 0 23 30" fill="none" xmlns="http://www.w3.org/2000/svg">
<g clip-path="url(#clip0_327_354)">
<path d="M5.69161 6.09041H0.461542C0.370752 6.08973 0.282184 6.06252 0.206912 6.01227C0.13164 5.96202 0.0730074 5.89092 0.0383562 5.80786C0.00370505 5.7248 -0.00542459 5.63347 0.0121006 5.54529C0.0296258 5.45712 0.0730195 5.37603 0.136877 5.31214L5.36695 0.130581C5.4315 0.0652481 5.51477 0.0210732 5.60548 0.00401556C5.69618 -0.0130421 5.78996 -0.00219441 5.87422 0.0351512C5.95875 0.0692833 6.03097 0.127722 6.08161 0.202903C6.13225 0.278084 6.15901 0.366537 6.15833 0.456891V5.62846C6.15901 5.68931 6.14736 5.74968 6.12415 5.80602C6.10094 5.86237 6.06662 5.91359 6.02315 5.95661C5.97968 5.99964 5.92793 6.0336 5.871 6.05658C5.81408 6.07955 5.75309 6.09108 5.69161 6.09041V6.09041ZM1.57251 5.17657H5.22997V1.5565L1.57251 5.17657Z" fill="#9DB2CE"/>
<path d="M22.5383 30H0.461579C0.339149 30 0.22175 29.9519 0.135179 29.8662C0.0486081 29.7805 0 29.6643 0 29.5431V5.62847C0.000931259 5.50764 0.0501262 5.3921 0.136913 5.30712L5.36698 0.125558C5.40974 0.0837078 5.46044 0.0506317 5.51616 0.028229C5.57187 0.00582632 5.63151 -0.00546655 5.69165 -0.00499043H22.5383C22.6608 -0.00499043 22.7782 0.0431207 22.8647 0.128807C22.9513 0.214493 23 0.330691 23 0.451869V29.5381C23.0007 29.5985 22.9892 29.6585 22.9663 29.7145C22.9434 29.7705 22.9095 29.8214 22.8666 29.8644C22.8237 29.9074 22.7725 29.9415 22.7162 29.9647C22.6598 29.988 22.5994 30 22.5383 30V30ZM0.923219 29.0862H22.0767V0.90879H5.88442L0.923219 5.81926V29.0862Z" fill="#9DB2CE"/>
<path d="M18.546 9.67532H8.61862C8.558 9.67532 8.49796 9.66346 8.44195 9.6405C8.38595 9.61754 8.33503 9.58388 8.29216 9.54146C8.2493 9.49903 8.21529 9.44869 8.19209 9.39326C8.16889 9.33782 8.15698 9.2784 8.15698 9.2184C8.15698 9.15839 8.16889 9.09897 8.19209 9.04353C8.21529 8.9881 8.2493 8.93776 8.29216 8.89533C8.33503 8.85291 8.38595 8.81925 8.44195 8.79629C8.49796 8.77333 8.558 8.76147 8.61862 8.76147H18.546C18.6067 8.76147 18.6667 8.77333 18.7227 8.79629C18.7787 8.81925 18.8296 8.85291 18.8724 8.89533C18.9153 8.93776 18.9493 8.9881 18.9725 9.04353C18.9957 9.09897 19.0077 9.15839 19.0077 9.2184C19.0077 9.2784 18.9957 9.33782 18.9725 9.39326C18.9493 9.44869 18.9153 9.49903 18.8724 9.54146C18.8296 9.58388 18.7787 9.61754 18.7227 9.6405C18.6667 9.66346 18.6067 9.67532 18.546 9.67532Z" fill="#9DB2CE"/>
<path d="M18.546 14.8519H4.47918C4.41484 14.8586 4.3498 14.8518 4.28827 14.832C4.22674 14.8122 4.17009 14.7799 4.122 14.7371C4.07392 14.6942 4.0355 14.6419 4.00918 14.5834C3.98286 14.5249 3.96924 14.4615 3.96924 14.3975C3.96924 14.3334 3.98286 14.2701 4.00918 14.2116C4.0355 14.1531 4.07392 14.1008 4.122 14.0579C4.17009 14.0151 4.22674 13.9827 4.28827 13.9629C4.3498 13.9431 4.41484 13.9364 4.47918 13.9431H18.5714C18.6357 13.9364 18.7008 13.9431 18.7623 13.9629C18.8238 13.9827 18.8805 14.0151 18.9286 14.0579C18.9766 14.1008 19.0151 14.1531 19.0414 14.2116C19.0677 14.2701 19.0813 14.3334 19.0813 14.3975C19.0813 14.4615 19.0677 14.5249 19.0414 14.5834C19.0151 14.6419 18.9766 14.6942 18.9286 14.7371C18.8805 14.7799 18.8238 14.8122 18.7623 14.832C18.7008 14.8518 18.6357 14.8586 18.5714 14.8519H18.546Z" fill="#9DB2CE"/>
<path d="M18.546 20.0335H4.47918C4.41484 20.0402 4.3498 20.0334 4.28827 20.0137C4.22674 19.9939 4.17009 19.9615 4.122 19.9187C4.07392 19.8758 4.0355 19.8234 4.00918 19.7649C3.98286 19.7064 3.96924 19.6431 3.96924 19.5791C3.96924 19.5151 3.98286 19.4517 4.00918 19.3932C4.0355 19.3347 4.07392 19.2823 4.122 19.2395C4.17009 19.1967 4.22674 19.1643 4.28827 19.1446C4.3498 19.1248 4.41484 19.118 4.47918 19.1247H18.5714C18.6357 19.118 18.7008 19.1248 18.7623 19.1446C18.8238 19.1643 18.8805 19.1967 18.9286 19.2395C18.9766 19.2823 19.0151 19.3347 19.0414 19.3932C19.0677 19.4517 19.0813 19.5151 19.0813 19.5791C19.0813 19.6431 19.0677 19.7064 19.0414 19.7649C19.0151 19.8234 18.9766 19.8758 18.9286 19.9187C18.8805 19.9615 18.8238 19.9939 18.7623 20.0137C18.7008 20.0334 18.6357 20.0402 18.5714 20.0335H18.546Z" fill="#9DB2CE"/>
<path d="M13.4327 25.21H4.47918C4.41484 25.2167 4.3498 25.21 4.28827 25.1902C4.22674 25.1704 4.17009 25.1381 4.122 25.0952C4.07392 25.0524 4.0355 25 4.00918 24.9415C3.98286 24.883 3.96924 24.8197 3.96924 24.7556C3.96924 24.6916 3.98286 24.6283 4.00918 24.5698C4.0355 24.5113 4.07392 24.4589 4.122 24.4161C4.17009 24.3732 4.22674 24.3409 4.28827 24.3211C4.3498 24.3013 4.41484 24.2945 4.47918 24.3012H13.458C13.5223 24.2945 13.5874 24.3013 13.649 24.3211C13.7105 24.3409 13.7671 24.3732 13.8152 24.4161C13.8633 24.4589 13.9017 24.5113 13.928 24.5698C13.9544 24.6283 13.968 24.6916 13.968 24.7556C13.968 24.8197 13.9544 24.883 13.928 24.9415C13.9017 25 13.8633 25.0524 13.8152 25.0952C13.7671 25.1381 13.7105 25.1704 13.649 25.1902C13.5874 25.21 13.5223 25.2167 13.458 25.21H13.4327Z" fill="#9DB2CE"/>
</g>
<defs>
<clipPath id="clip0_327_354">
<rect width="23" height="30" fill="white"/>
</clipPath>
</defs>
</svg>
