<svg width="25" height="25" viewBox="0 0 25 25" fill="none" xmlns="http://www.w3.org/2000/svg">
<path d="M22.1667 12.5V17.5C22.1667 20.5 20.1667 22.5 17.1667 22.5H7.16675C4.16675 22.5 2.16675 20.5 2.16675 17.5V12.5C2.16675 9.78 3.80675 7.88 6.35675 7.56C6.61675 7.52 6.88675 7.5 7.16675 7.5H17.1667C17.4267 7.5 17.6767 7.50999 17.9167 7.54999C20.4967 7.84999 22.1667 9.76 22.1667 12.5Z" stroke="#9DB2CE" stroke-width="1.5" stroke-linecap="round" stroke-linejoin="round"/>
<path d="M17.9182 7.55C17.6782 7.51 17.4282 7.50001 17.1682 7.50001H7.16815C6.88815 7.50001 6.61815 7.52001 6.35815 7.56001C6.49815 7.28001 6.69815 7.02001 6.93815 6.78001L10.1882 3.52C11.5582 2.16 13.7782 2.16 15.1482 3.52L16.8982 5.29002C17.5382 5.92002 17.8782 6.72 17.9182 7.55Z" stroke="#9DB2CE" stroke-width="1.5" stroke-linecap="round" stroke-linejoin="round"/>
<path d="M22.1667 13H19.1667C18.0667 13 17.1667 13.9 17.1667 15C17.1667 16.1 18.0667 17 19.1667 17H22.1667" stroke="#9DB2CE" stroke-width="1.5" stroke-linecap="round" stroke-linejoin="round"/>
</svg>
