<svg width="143" height="156" viewBox="0 0 143 156" fill="none" xmlns="http://www.w3.org/2000/svg">
<path d="M23.8334 45.5C23.8334 33.2435 23.8334 27.1152 27.3237 23.3076C30.814 19.5 36.4316 19.5 47.6667 19.5H95.3334C106.568 19.5 112.186 19.5 115.676 23.3076C119.167 27.1152 119.167 33.2435 119.167 45.5V97.5C119.167 115.885 119.167 125.077 113.931 130.788C108.696 136.5 100.269 136.5 83.4167 136.5H59.5834C42.7306 136.5 34.3043 136.5 29.0688 130.788C23.8334 125.077 23.8334 115.885 23.8334 97.5V45.5Z" stroke="#2F80ED" stroke-width="8.41667"/>
<path d="M89.375 117V136.5M53.625 117V136.5" stroke="#2F80ED" stroke-width="8.41667" stroke-linecap="round"/>
<path d="M53.625 52H89.375" stroke="#2F80ED" stroke-width="8.41667" stroke-linecap="round"/>
<path d="M53.625 78H89.375" stroke="#2F80ED" stroke-width="8.41667" stroke-linecap="round"/>
</svg>
